# xmcd CD database file
#
# Track frame offsets:
#	150
#	18840
#	35305
#	48452
#	68911
#	85679
#	103474
#	118558
#	132828
#	145992
#	156056
#	171728
#	185452
#	199241
#
# Disc length: 2906 seconds
#
# Revision: 0
# Processed by: cddbd v1.5.2PL0 Copyright (c) Steve Scherf et al.
# Submitted via: CDex 1.70beta2
#
DISCID=c60b580e
DTITLE=Shreveport Rhythm - Hot Jazz and Swing Vol.2
DYEAR=2014
DGENRE=Jazz
TTITLE0=Oh, Lady be good
TTITLE1=Singin'  the blues
TTITLE2=Shivers
TTITLE3=My baby just cares for me
TTITLE4=Rose room
TTITLE5=Stardust
TTITLE6=Bei mir bist du schön
TTITLE7=Echoes of spring
TTITLE8=Cornet shop suey
TTITLE9=My blue heaven
TTITLE10=Just a gigolo - I ain' t got nobody
TTITLE11=Till Tom special
TTITLE12=Indian summer
TTITLE13=It don' t mean a thing
EXTD=YEAR: 2014
EXTT0=
EXTT1=
EXTT2=
EXTT3=
EXTT4=
EXTT5=
EXTT6=
EXTT7=
EXTT8=
EXTT9=
EXTT10=
EXTT11=
EXTT12=
EXTT13=
PLAYORDER=
